<svg
  role="img"
  id="admin"
  width="24"
  height="24"
  viewBox="0 0 24 24"
  xmlns="http://www.w3.org/2000/svg"
>
  <g id="User_2">
    <path
      id="Vector"
      fillRule="evenodd"
      clipRule="evenodd"
      d="M15.7335 6.1333C13.8089 6.1333 12.2488 7.67326 12.2488 9.57404C12.2488 11.4748 13.8089 13.0157 15.7335 13.0157C17.6581 13.0157 19.2183 11.4748 19.2183 9.57404C19.2183 7.67326 17.6581 6.1333 15.7335 6.1333ZM22.3805 20C23.0631 20 23.4381 19.1618 23.0325 18.5688C21.3789 16.1578 18.7288 14.5928 15.7344 14.5928C12.7383 14.5928 10.0882 16.1578 8.43456 18.5688C8.02814 19.1618 8.40397 20 9.08658 20H22.3805Z"
      fill="black"
    />
    <path
      id="Subtract"
      fillRule="evenodd"
      clipRule="evenodd"
      d="M4.78211 5.84062C4.78211 3.93984 6.34224 2.39988 8.26684 2.39988C10.1914 2.39988 11.7516 3.93984 11.7516 5.84062C11.7516 7.7414 10.1914 9.28223 8.26684 9.28223C6.34224 9.28223 4.78211 7.7414 4.78211 5.84062ZM8.74473 16.2665C10.0243 15.0055 11.6089 14.079 13.3771 13.6372C12.5076 13.1413 11.8105 12.379 11.4024 11.4599C10.4258 11.0715 9.37012 10.8594 8.26772 10.8594C5.27156 10.8594 2.62152 12.4244 0.96787 14.8353C0.561448 15.4284 0.937277 16.2665 1.61989 16.2665H8.74473Z"
      fill="black"
    />
  </g>
</svg>