<svg role="img" id="creditcard" width="32" height="32" viewBox="0 0 32 32" fill="none" xmlns="http://www.w3.org/2000/svg">
<g id="credit_card_clock_24dp_5F6368_FILL0_wght400_GRAD0_opsz24 1">
<path id="Vector" d="M5.33333 24.0002V13.3335V13.7668V8.00016V24.0002ZM5.33333 10.6668H26.6667V8.00016H5.33333V10.6668ZM15.5667 26.6668H5.33333C4.6 26.6668 3.97222 26.4057 3.45 25.8835C2.92778 25.3613 2.66666 24.7335 2.66666 24.0002V8.00016C2.66666 7.26683 2.92778 6.63905 3.45 6.11683C3.97222 5.59461 4.6 5.3335 5.33333 5.3335H26.6667C27.4 5.3335 28.0278 5.59461 28.55 6.11683C29.0722 6.63905 29.3333 7.26683 29.3333 8.00016V15.0002C28.5333 14.4446 27.6667 14.0279 26.7333 13.7502C25.8 13.4724 24.8444 13.3335 23.8667 13.3335C22.6667 13.3335 21.5111 13.5668 20.4 14.0335C19.2889 14.5002 18.3111 15.1557 17.4667 16.0002H5.33333V24.0002H14.7667C14.8333 24.4668 14.9333 24.9224 15.0667 25.3668C15.2 25.8113 15.3667 26.2446 15.5667 26.6668ZM26.2333 25.8335L27.1667 24.9002L24.6667 22.4002V18.6668H23.3333V22.9335L26.2333 25.8335ZM24.0333 29.3335C22.1667 29.3335 20.5833 28.6891 19.2833 27.4002C17.9833 26.1113 17.3333 24.5335 17.3333 22.6668C17.3333 20.8002 17.9833 19.2224 19.2833 17.9335C20.5833 16.6446 22.1667 16.0002 24.0333 16.0002C25.8778 16.0002 27.4444 16.6502 28.7333 17.9502C30.0222 19.2502 30.6667 20.8224 30.6667 22.6668C30.6667 24.5113 30.0222 26.0835 28.7333 27.3835C27.4444 28.6835 25.8778 29.3335 24.0333 29.3335Z" fill="#DC314E"/>
</g>
</svg>
