<svg width="20" height="20" viewBox="0 0 20 20" fill="none" xmlns="http://www.w3.org/2000/svg">
<path d="M17.745 15.5381L14.7493 12.5297C15.5991 11.428 16.1091 10.0508 16.1091 8.54661C16.1091 4.94491 13.1771 2 9.54391 2C5.91076 2 3 4.94492 3 8.5678C3 12.1695 5.93201 15.1144 9.56516 15.1144C11.0737 15.1144 12.4547 14.6059 13.5595 13.7585L16.5552 16.7458C16.7252 16.9153 16.9377 17 17.1501 17C17.3626 17 17.5751 16.9153 17.745 16.7458C18.085 16.4068 18.085 15.8559 17.745 15.5381ZM4.69972 8.5678C4.69972 5.8983 6.8881 3.7161 9.56516 3.7161C12.2422 3.7161 14.4093 5.8983 14.4093 8.5678C14.4093 11.2373 12.221 13.4195 9.54391 13.4195C6.86686 13.4195 4.69972 11.2373 4.69972 8.5678Z" fill="black"/>
</svg>
