<svg width="16" height="16" viewBox="0 0 16 16" fill="none" xmlns="http://www.w3.org/2000/svg">
<g id="Content">
<g id="Group 3837">
<circle id="Ellipse 43" cx="8.10042" cy="7.98922" r="6.98333" stroke="black" stroke-width="0.7"/>
<path id="Union" fill-rule="evenodd" clip-rule="evenodd" d="M7.2336 2.98515L5.94852 1.33253L6.50111 0.902832L7.87622 2.67124L10.7607 3.42922L12.5989 2.23127L12.981 2.81772L11.2025 3.97681L11.5696 6.32848L12.5977 7.34153L14.6172 6.71411L14.9916 6.5978L15.0648 6.98293C15.1777 7.57584 15.2211 8.54401 15.0643 9.53727C14.9083 10.5257 14.5451 11.5943 13.7967 12.3318L13.551 12.5739L13.3053 12.3318L11.788 10.8366L10.0012 11.5409L8.52736 13.7195L9.37317 14.7697L8.82798 15.2088L7.89819 14.0543L5.30561 13.5068L4.63429 14.4508L4.06384 14.0451L4.7856 13.0302L4.40355 10.583L3.12774 9.14616L1.53124 9.38072L1.21877 9.42663L1.14111 9.12051C0.871489 8.05771 0.956863 6.9993 1.18895 6.12891C1.41824 5.26903 1.80308 4.54848 2.1785 4.17852L2.38665 3.9734L2.62562 4.14161L3.98885 5.10117L5.80395 4.9223L7.2336 2.98515ZM7.81331 3.37847L6.46473 5.20578L8.19503 6.74038L10.844 6.21831L10.5113 4.08746L7.81331 3.37847ZM11.1278 6.87583L8.35913 7.42151L7.67099 9.4559L9.81256 10.8628L11.5725 10.1691L12.1157 7.8494L11.1278 6.87583ZM12.7964 8.01278L12.257 10.316L13.5351 11.5754C13.9867 11.0005 14.2473 10.2236 14.3729 9.42811C14.4856 8.71421 14.4843 8.01854 14.4323 7.50454L12.7964 8.01278ZM9.28338 11.3527L7.20167 9.98512L5.12517 10.6672L5.46195 12.8244L7.93455 13.3465L9.28338 11.3527ZM4.84263 10.0232L6.97731 9.32202L7.6866 7.22511L5.8753 5.61866L4.18864 5.78487L3.63993 8.66872L4.84263 10.0232ZM2.96665 8.46231L3.50773 5.61854L2.48566 4.89911C2.26788 5.20645 2.02843 5.69756 1.86532 6.30927C1.68013 7.00377 1.60297 7.81946 1.75268 8.64067L2.96665 8.46231Z" fill="black"/>
<g id="Union_2">
<path d="M3.24914 8.81389L1.48372 9.03456C0.954099 7.09261 1.99863 5.28306 2.58711 4.62103L3.91117 5.50374L3.24914 8.81389Z" fill="black"/>
<path d="M8.10404 7.04847L6.11795 5.28306L7.66268 3.07629L10.7522 3.959L11.1935 6.38644L8.10404 7.04847Z" fill="black"/>
<path d="M7.22133 9.69659L4.79389 10.5793L5.23524 13.2274L8.10404 13.6688L9.64877 11.2413L7.22133 9.69659Z" fill="black"/>
<path d="M12.5176 7.93118L11.8555 10.5793L13.621 11.9034C15.0333 10.3145 14.945 8.00474 14.7243 7.04847L12.5176 7.93118Z" fill="black"/>
<path d="M1.48372 9.03456L1.14322 9.12743L1.22376 9.42275L1.5275 9.38478L1.48372 9.03456ZM3.24914 8.81389L3.29291 9.1641L3.54533 9.13255L3.59522 8.8831L3.24914 8.81389ZM3.91117 5.50374L4.25725 5.57295L4.30361 5.34118L4.10694 5.21007L3.91117 5.50374ZM2.58711 4.62103L2.78288 4.32737L2.52735 4.15701L2.32331 4.38655L2.58711 4.62103ZM6.11795 5.28306L5.82881 5.08066L5.64861 5.33809L5.88346 5.54685L6.11795 5.28306ZM8.10404 7.04847L7.86955 7.31227L8.00318 7.43104L8.17799 7.39358L8.10404 7.04847ZM11.1935 6.38644L11.2675 6.73155L11.6019 6.65987L11.5408 6.32331L11.1935 6.38644ZM10.7522 3.959L11.0994 3.89586L11.0601 3.67993L10.8491 3.61964L10.7522 3.959ZM7.66268 3.07629L7.75964 2.73693L7.51779 2.66783L7.37354 2.8739L7.66268 3.07629ZM4.79389 10.5793L4.67327 10.2476L4.39751 10.3479L4.44575 10.6373L4.79389 10.5793ZM7.22133 9.69659L7.41081 9.39883L7.26412 9.30548L7.10071 9.3649L7.22133 9.69659ZM9.64877 11.2413L9.94654 11.4308L10.136 11.1331L9.83826 10.9436L9.64877 11.2413ZM8.10404 13.6688L8.05037 14.0176L8.2781 14.0526L8.4018 13.8583L8.10404 13.6688ZM5.23524 13.2274L4.8871 13.2854L4.9291 13.5374L5.18157 13.5763L5.23524 13.2274ZM11.8555 10.5793L11.5131 10.4937L11.4563 10.721L11.6438 10.8617L11.8555 10.5793ZM12.5176 7.93118L12.3865 7.60348L12.2189 7.67051L12.1752 7.84558L12.5176 7.93118ZM14.7243 7.04847L15.0682 6.96911L14.9756 6.56783L14.5933 6.72078L14.7243 7.04847ZM13.621 11.9034L13.4092 12.1857L13.669 12.3806L13.8847 12.1378L13.621 11.9034ZM1.5275 9.38478L3.29291 9.1641L3.20536 8.46367L1.43995 8.68435L1.5275 9.38478ZM3.59522 8.8831L4.25725 5.57295L3.56508 5.43452L2.90305 8.74467L3.59522 8.8831ZM4.10694 5.21007L2.78288 4.32737L2.39133 4.9147L3.71539 5.7974L4.10694 5.21007ZM2.32331 4.38655C1.99887 4.75154 1.56652 5.40979 1.2825 6.23267C0.997499 7.0584 0.855018 8.0707 1.14322 9.12743L1.82423 8.9417C1.5828 8.05648 1.69778 7.19302 1.94976 6.46298C2.20272 5.73009 2.58687 5.15255 2.8509 4.85551L2.32331 4.38655ZM5.88346 5.54685L7.86955 7.31227L8.33852 6.78468L6.35243 5.01927L5.88346 5.54685ZM8.17799 7.39358L11.2675 6.73155L11.1196 6.04134L8.03008 6.70337L8.17799 7.39358ZM11.5408 6.32331L11.0994 3.89586L10.4049 4.02214L10.8463 6.44958L11.5408 6.32331ZM10.8491 3.61964L7.75964 2.73693L7.56572 3.41566L10.6552 4.29836L10.8491 3.61964ZM7.37354 2.8739L5.82881 5.08066L6.40709 5.48546L7.95182 3.27869L7.37354 2.8739ZM4.9145 10.911L7.34194 10.0283L7.10071 9.3649L4.67327 10.2476L4.9145 10.911ZM7.03184 9.99436L9.45929 11.5391L9.83826 10.9436L7.41081 9.39883L7.03184 9.99436ZM9.35101 11.0518L7.80627 13.4793L8.4018 13.8583L9.94654 11.4308L9.35101 11.0518ZM8.1577 13.3199L5.28891 12.8786L5.18157 13.5763L8.05037 14.0176L8.1577 13.3199ZM5.58338 13.1694L5.14203 10.5213L4.44575 10.6373L4.8871 13.2854L5.58338 13.1694ZM12.1979 10.6649L12.86 8.01678L12.1752 7.84558L11.5131 10.4937L12.1979 10.6649ZM12.6486 8.25888L14.8554 7.37617L14.5933 6.72078L12.3865 7.60348L12.6486 8.25888ZM14.3804 7.12784C14.4813 7.56504 14.5562 8.33786 14.4356 9.18918C14.3152 10.0389 14.0039 10.9413 13.3572 11.6689L13.8847 12.1378C14.6503 11.2766 15.0011 10.2296 15.1345 9.2882C15.2676 8.34836 15.188 7.48817 15.0682 6.96911L14.3804 7.12784ZM13.8327 11.621L12.0673 10.2969L11.6438 10.8617L13.4092 12.1857L13.8327 11.621Z" fill="black"/>
</g>
</g>
</g>
</svg>
