<svg role="img" id="live-tv" width="24" height="24" viewBox="0 0 24 24" xmlns="http://www.w3.org/2000/svg">
    <path fill-rule="evenodd" clip-rule="evenodd" d="M5.56894 19.3846H18.4323C18.9575 19.3846 19.3846 19.9018 19.3846 20.5392C19.3846 21.1765 18.9575 21.6923 18.4323 21.6923H5.56894C5.04255 21.6923 4.61538 21.1765 4.61538 20.5392C4.61538 19.9018 5.04255 19.3846 5.56894 19.3846ZM21.6923 15.363C21.6923 15.8001 21.3236 16.1538 20.8679 16.1538H3.13319C2.67749 16.1538 2.30769 15.8001 2.30769 15.363V5.86777C2.30769 5.43064 2.67749 5.07692 3.13319 5.07692H20.8679C21.3236 5.07692 21.6923 5.43064 21.6923 5.86777V15.363ZM1.74564 2.76923C0.78138 2.76923 0 3.55091 0 4.51306V16.7177C0 17.681 0.78138 18.4615 1.74564 18.4615H22.2544C23.2186 18.4615 24 17.681 24 16.7177V4.51306C24 3.55091 23.2186 2.76923 22.2544 2.76923H1.74564Z"/>
    <path fill-rule="evenodd" clip-rule="evenodd" d="M5.56894 19.3846H18.4323C18.9575 19.3846 19.3846 19.9018 19.3846 20.5392C19.3846 21.1765 18.9575 21.6923 18.4323 21.6923H5.56894C5.04255 21.6923 4.61538 21.1765 4.61538 20.5392C4.61538 19.9018 5.04255 19.3846 5.56894 19.3846ZM21.6923 15.363C21.6923 15.8001 21.3236 16.1538 20.8679 16.1538H3.13319C2.67749 16.1538 2.30769 15.8001 2.30769 15.363V5.86777C2.30769 5.43064 2.67749 5.07692 3.13319 5.07692H20.8679C21.3236 5.07692 21.6923 5.43064 21.6923 5.86777V15.363ZM1.74564 2.76923C0.78138 2.76923 0 3.55091 0 4.51306V16.7177C0 17.681 0.78138 18.4615 1.74564 18.4615H22.2544C23.2186 18.4615 24 17.681 24 16.7177V4.51306C24 3.55091 23.2186 2.76923 22.2544 2.76923H1.74564Z"/>
</svg>