<svg role="img" id="lock" width="24" height="24" viewBox="0 0 24 24" xmlns="http://www.w3.org/2000/svg">
    <path fill-rule="evenodd" clip-rule="evenodd" d="M8.4135 7.69506H8.43996C8.43789 6.69423 8.84107 5.73663 9.55482 5.04708C10.2686 4.35753 11.23 3.99679 12.2134 4.04954C14.1518 4.15834 15.6393 5.83262 15.6393 7.80258V10.314C15.6396 10.3857 15.6117 10.4546 15.5618 10.5054C15.5119 10.5561 15.4441 10.5844 15.3735 10.5841H8.67926C8.60867 10.5844 8.54088 10.5561 8.49097 10.5054C8.44106 10.4546 8.41317 10.3857 8.4135 10.314V7.69506ZM12.7663 16.4671L13.0019 18.3641C13.0019 18.679 12.983 18.6982 12.6731 18.6982H11.5635C11.2537 18.6982 11.0005 18.679 11.0005 18.3641L11.2348 16.4671C11.2345 16.3887 11.2504 16.3111 11.2814 16.2392C10.9713 15.9416 10.872 15.4813 11.0311 15.0791C11.1902 14.6769 11.5753 14.4145 12.0018 14.4177C12.4267 14.4182 12.8085 14.6811 12.9665 15.0819C13.1245 15.4827 13.0268 15.9409 12.7197 16.2392C12.7507 16.3111 12.7666 16.3887 12.7663 16.4671ZM5.51791 21.6H18.482C18.6726 21.601 18.8556 21.5245 18.9903 21.3874C19.1249 21.2503 19.2 21.0641 19.1986 20.8704V11.2868C19.2107 11.095 19.143 10.9068 19.012 10.7681C18.881 10.6294 18.6988 10.5529 18.5097 10.5572H17.4718C17.3251 10.5572 17.2061 10.4363 17.2061 10.2871V7.80258C17.2061 4.94172 15.0284 2.51094 12.2134 2.40342C10.8004 2.35199 9.42749 2.88667 8.41013 3.88463C7.39278 4.8826 6.81841 6.25806 6.81898 7.69506V10.314C6.81931 10.3857 6.79142 10.4546 6.74151 10.5054C6.6916 10.5561 6.62381 10.5844 6.55322 10.5841H5.51791C5.3273 10.5834 5.14431 10.66 5.00953 10.797C4.87475 10.934 4.79932 11.12 4.79999 11.3137V20.8704C4.79999 21.2762 5.11991 21.6 5.51791 21.6Z"/>
</svg>