<svg width="17" height="17" viewBox="0 0 17 17" fill="none" xmlns="http://www.w3.org/2000/svg">
<g id="Content">
<g id="icon">
<path fill-rule="evenodd" clip-rule="evenodd" d="M10.2766 5.2568C10.8677 5.2568 11.3475 5.73444 11.3475 6.32292C11.3475 6.9114 10.8677 7.38903 10.2766 7.38903C9.68554 7.38903 9.20578 6.9114 9.20578 6.32292C9.20578 5.73444 9.68554 5.2568 10.2766 5.2568ZM4.38387 5.2568C4.97497 5.2568 5.45675 5.73444 5.45675 6.32292C5.45675 6.9114 4.97497 7.38903 4.38387 7.38903C3.79277 7.38903 3.31301 6.9114 3.31301 6.32292C3.31301 5.73444 3.79277 5.2568 4.38387 5.2568ZM4.38387 3.12256C2.61462 3.12256 1.16724 4.56151 1.16724 6.3209C1.16724 7.70746 2.06805 8.89248 3.31301 9.33384V14.3218C3.31098 14.616 3.55188 14.8579 3.84945 14.8559H10.8131C11.1086 14.8559 11.3475 14.616 11.3455 14.3218L11.3475 12.7962L14.2483 14.0598C14.6046 14.3158 15.1006 14.0638 15.1006 13.6265V9.07789C15.0985 8.7776 14.8496 8.53576 14.5459 8.54785C14.4406 8.54987 14.384 8.5801 14.2483 8.64459L11.3475 10.0352L11.3455 9.33384C12.5924 8.89248 13.4892 7.70746 13.4892 6.3209C13.4892 4.56151 12.0439 3.12256 10.2746 3.12256C8.96083 3.12256 7.82722 3.91862 7.33126 5.05124C6.83531 3.91862 5.69764 3.12256 4.38387 3.12256Z" fill="black"/>
</g>
</g>
</svg>
