<svg role="img" id="MyUIbox" width="74" height="17" viewBox="0 0 74 17" fill="none" xmlns="http://www.w3.org/2000/svg">
<g id="MyUIBOX 1">
<g id="MyUIBOX">
<g id="Group">
<path id="Vector" d="M52.8725 10.572C52.8725 11.4751 52.5507 12.1657 51.8536 12.6438C51.2638 13.0688 50.513 13.2813 49.5478 13.2813H45.5797V3.77197H49.2797C51.1029 3.77197 51.9609 4.56885 51.9609 6.26885C51.9609 6.8001 51.8536 7.2251 51.5855 7.59697C51.4246 7.8626 51.2101 8.0751 50.8884 8.23447C51.4783 8.34072 51.9609 8.55322 52.229 8.81885C52.658 9.19072 52.8725 9.82822 52.8725 10.572ZM49.7087 6.5876C49.7087 5.9501 49.3333 5.68447 48.529 5.68447H48.1V7.54385H48.529C49.2797 7.49072 49.7087 7.17197 49.7087 6.5876ZM50.3522 10.3063C50.3522 9.93447 50.1913 9.66885 49.8696 9.50947C49.6551 9.40322 49.2261 9.3501 48.5826 9.3501H48.0464V11.3688H48.5826C49.7623 11.3157 50.3522 10.997 50.3522 10.3063ZM64.2942 8.5001C64.2942 9.9876 63.758 11.2095 62.7391 12.1657C61.7203 13.122 60.487 13.6001 58.9855 13.6001C57.4841 13.6001 56.2507 13.122 55.1783 12.1657C54.1594 11.2095 53.6768 10.0407 53.6768 8.60635C53.6768 7.54385 53.9449 6.5876 54.5348 5.7376C55.1246 4.8876 55.8754 4.2501 56.8406 3.87822C57.4841 3.6126 58.1812 3.50635 58.9319 3.50635C60.487 3.50635 61.7739 3.98447 62.7391 4.94072C63.758 5.84385 64.2942 7.06572 64.2942 8.5001ZM61.6667 8.5001C61.6667 7.75635 61.3986 7.11885 60.8623 6.5876C60.3261 6.05635 59.6826 5.79072 58.9319 5.79072C58.1812 5.79072 57.5377 6.05635 57.0015 6.5876C56.4652 7.11885 56.1971 7.70322 56.1971 8.44697C56.1971 9.19072 56.4652 9.82822 57.0015 10.3595C57.5377 10.8907 58.1812 11.1563 58.9319 11.1563C59.6826 11.1563 60.3261 10.8907 60.8623 10.3595C61.3986 9.88135 61.6667 9.24385 61.6667 8.5001Z" fill="#DC314E"/>
<g id="Group_2">
<path id="Vector_2" d="M70.6217 13.2283L68.5841 10.1471L66.4391 13.2283H63.4362L67.1899 8.18146L64.1333 3.77209H67.1899L68.6377 6.21584L70.1391 3.77209H73.1957L70.0855 8.18146L73.6783 13.2283H70.6217ZM7.40001 12.9096C7.40001 13.0158 7.34639 13.069 7.34639 13.069C7.34639 13.069 7.29276 13.1221 7.18552 13.1221C5.95218 13.6002 4.61161 13.4408 4.61161 13.4408C2.41305 13.1752 1.01885 11.8471 0.536243 10.1471C-0.107236 7.54396 1.17972 5.73771 1.50146 5.31271C2.25218 4.40959 3.48552 3.71896 4.66523 3.55959C6.16668 3.34709 7.29276 3.71896 7.77537 3.82521C7.77537 3.82521 8.31161 3.98459 8.68697 4.25021C8.90146 4.35646 8.90146 4.40959 8.90146 4.40959C8.90146 4.40959 8.90146 4.40959 8.84784 4.62209L8.47248 6.48146C8.47248 6.53459 8.41885 6.58771 8.41885 6.58771C8.41885 6.58771 8.41885 6.58771 8.20436 6.48146C7.07827 5.68459 5.73769 5.79084 5.73769 5.79084C4.71885 5.84396 3.53914 6.37521 3.16378 7.70334C2.89566 9.03146 3.2174 9.98771 3.96813 10.6252C4.45074 11.0502 5.20146 11.2627 6.00581 11.2096C6.86378 11.1565 7.56088 10.7846 7.50726 10.8377H7.56088C7.72175 10.7315 7.77537 10.7846 7.77537 10.7846C7.77537 10.7846 7.829 10.8377 7.77537 10.944L7.40001 12.9096ZM27.187 13.2283H24.8275L21.6638 7.65021H21.6102C21.6102 7.65021 21.6102 7.65021 21.6102 7.70334L20.8058 13.1752C20.8058 13.2283 20.8058 13.2283 20.8058 13.2283C20.8058 13.2283 20.8058 13.2283 20.7522 13.2283H18.5C18.4464 13.2283 18.4464 13.2283 18.4464 13.2283C18.4464 13.2283 18.3928 13.1752 18.3928 13.1221L19.5725 4.25021C19.5725 4.19709 19.6261 4.19709 19.6261 4.19709L19.6797 4.14396H22.2C22.2536 4.14396 22.2536 4.14396 22.2536 4.14396C22.2536 4.14396 22.2536 4.14396 22.3073 4.19709L25.1493 9.19084C25.2029 9.29709 25.2565 9.29709 25.2565 9.29709C25.2565 9.29709 25.3102 9.29709 25.3102 9.19084L26.0073 4.25021C26.0073 4.19709 26.0073 4.19709 26.0073 4.19709C26.0073 4.19709 26.0073 4.19709 26.0609 4.19709H28.4203C28.4739 4.19709 28.4739 4.19709 28.4739 4.19709C28.4739 4.19709 28.4739 4.19709 28.4739 4.25021L27.187 13.1752C27.187 13.2283 27.1333 13.2815 27.1333 13.2815C27.1333 13.2815 27.2406 13.2283 27.187 13.2283ZM15.658 4.19709C15.658 4.14396 15.658 4.14396 15.658 4.19709C15.658 4.14396 15.6044 4.09084 15.5507 4.09084H12.6015C12.6015 4.09084 12.5478 4.09084 12.5478 4.14396L8.04349 13.1221C8.04349 13.1752 8.04349 13.2283 8.04349 13.2283C8.04349 13.2283 8.04349 13.2815 8.15074 13.2283H10.7246C10.7783 13.2283 10.7783 13.2283 10.7783 13.2283C10.7783 13.2283 10.7783 13.2283 10.8319 13.1752L11.4754 11.8471C11.529 11.7408 11.5826 11.7408 11.5826 11.7408C11.5826 11.7408 11.6362 11.6877 11.6899 11.6877H14.8536C14.8536 11.6877 14.8536 11.6877 14.8536 11.7408L15.229 13.1752C15.229 13.2815 15.229 13.2815 15.229 13.2815C15.229 13.2815 15.2826 13.2815 15.3362 13.2815H17.5348H17.5884C17.5884 13.2815 17.5884 13.2815 17.5884 13.2283L15.658 4.19709ZM14.5319 9.61584H12.6551C12.6015 9.61584 12.6015 9.61584 12.6015 9.61584C12.6015 9.61584 12.6015 9.61584 12.6015 9.56271L13.8348 6.74709L14.5319 9.61584ZM31.9058 4.14396C31.8522 4.14396 31.7986 4.19709 31.7986 4.19709L28.3131 13.1752C28.3131 13.2283 28.3131 13.2283 28.3667 13.2283H30.7261C30.7797 13.2283 30.8333 13.1752 30.8333 13.1752L31.4232 11.7408C31.4232 11.6877 31.4768 11.6877 31.5304 11.6877H34.6942C34.7478 11.6877 34.8015 11.7408 34.8015 11.7408L35.3377 13.1752C35.3377 13.2283 35.3913 13.2283 35.4449 13.2283H37.858C37.9116 13.2283 37.9116 13.1752 37.9116 13.1752L34.4261 4.19709C34.4261 4.19709 34.4261 4.14396 34.3725 4.14396H34.3189H31.9058ZM32.1739 9.88146C32.1203 9.88146 32.1203 9.82834 32.1203 9.82834L33.0855 7.06584C33.0855 7.01271 33.1391 7.01271 33.1391 7.06584L34.0507 9.82834C34.0507 9.88146 34.0507 9.88146 33.9971 9.88146H32.1739ZM41.3435 10.8908C41.3435 10.944 41.3971 10.9971 41.4507 10.9971H44.3464C44.4 10.9971 44.4536 11.0502 44.4536 11.1033V13.2283C44.4536 13.2815 44.4 13.3346 44.3464 13.3346H38.6623C38.6087 13.2815 38.6087 13.2283 38.6087 13.1752V3.87834C38.6087 3.82521 38.6623 3.77209 38.716 3.77209H41.2899C41.3435 3.77209 41.3971 3.82521 41.3971 3.87834V10.8908H41.3435Z" fill="#DC314E"/>
</g>
</g>
</g>
</g>
</svg>
