<svg role="img" id="payments" width="32" height="32" viewBox="0 0 32 32" fill="none" xmlns="http://www.w3.org/2000/svg">
<g id="payments_24dp_5F6368_FILL0_wght400_GRAD0_opsz24 1">
<path id="Vector" d="M18.6667 17.3335C17.5556 17.3335 16.6111 16.9446 15.8333 16.1668C15.0556 15.3891 14.6667 14.4446 14.6667 13.3335C14.6667 12.2224 15.0556 11.2779 15.8333 10.5002C16.6111 9.72239 17.5556 9.3335 18.6667 9.3335C19.7778 9.3335 20.7222 9.72239 21.5 10.5002C22.2778 11.2779 22.6667 12.2224 22.6667 13.3335C22.6667 14.4446 22.2778 15.3891 21.5 16.1668C20.7222 16.9446 19.7778 17.3335 18.6667 17.3335ZM9.33334 21.3335C8.60001 21.3335 7.97223 21.0724 7.45001 20.5502C6.92779 20.0279 6.66668 19.4002 6.66668 18.6668V8.00016C6.66668 7.26683 6.92779 6.63905 7.45001 6.11683C7.97223 5.59461 8.60001 5.3335 9.33334 5.3335H28C28.7333 5.3335 29.3611 5.59461 29.8833 6.11683C30.4056 6.63905 30.6667 7.26683 30.6667 8.00016V18.6668C30.6667 19.4002 30.4056 20.0279 29.8833 20.5502C29.3611 21.0724 28.7333 21.3335 28 21.3335H9.33334ZM12 18.6668H25.3333C25.3333 17.9335 25.5945 17.3057 26.1167 16.7835C26.6389 16.2613 27.2667 16.0002 28 16.0002V10.6668C27.2667 10.6668 26.6389 10.4057 26.1167 9.8835C25.5945 9.36127 25.3333 8.7335 25.3333 8.00016H12C12 8.7335 11.7389 9.36127 11.2167 9.8835C10.6945 10.4057 10.0667 10.6668 9.33334 10.6668V16.0002C10.0667 16.0002 10.6945 16.2613 11.2167 16.7835C11.7389 17.3057 12 17.9335 12 18.6668ZM26.6667 26.6668H4.00001C3.26668 26.6668 2.6389 26.4057 2.11668 25.8835C1.59445 25.3613 1.33334 24.7335 1.33334 24.0002V9.3335H4.00001V24.0002H26.6667V26.6668Z" fill="#DC314E"/>
</g>
</svg>
