<svg role="img" id="privacy" width="24" height="24" viewBox="0 0 24 24" fill="none" xmlns="http://www.w3.org/2000/svg">
    <g clip-path="url(#clip0_25_5433)">
        <path d="M22 0H2C0.895431 0 0 0.89543 0 2V22C0 23.1046 0.89543 24 2 24H22C23.1046 24 24 23.1046 24 22V2C24 0.895431 23.1046 0 22 0Z" fill="#BCCDD7"/>
        <path fill-rule="evenodd" clip-rule="evenodd" d="M11.0958 5.6771C11.671 5.4213 12.329 5.4213 12.9042 5.6771C14.0291 6.17736 15.154 6.56156 16.2789 6.82971C17.2541 7.06219 18 7.89825 18 8.9008V11.2722C18 14.6324 15.5624 16.7919 12.8845 18.2837C12.3346 18.5901 11.6654 18.5901 11.1155 18.2837C8.43758 16.7919 6 14.6324 6 11.2722V8.9008C6 7.89825 6.74591 7.06219 7.72113 6.82971C8.84603 6.56156 9.97092 6.17736 11.0958 5.6771ZM12 9C11.1716 9 10.5 9.67157 10.5 10.5C10.5 10.643 10.52 10.7813 10.5574 10.9122C10.7531 11.5987 11.25 12.2389 11.25 12.9528L11.25 13.875C11.25 14.0821 11.4179 14.25 11.625 14.25H12.375C12.5821 14.25 12.75 14.0821 12.75 13.875L12.7504 12.9511C12.7506 12.2379 13.2468 11.5984 13.4425 10.9126C13.48 10.7815 13.5 10.6431 13.5 10.5C13.5 9.67157 12.8284 9 12 9Z" fill="white"/>
    </g>
    <defs>
        <clipPath id="clip0_25_5433">
            <rect width="24" height="24" fill="white"/>
        </clipPath>
    </defs>
</svg>