<svg
  role="img"
  id="pro"
  width="24"
  height="24"
  viewBox="0 0 50 50"
  xmlns="http://www.w3.org/2000/svg"
>
  <path
    id="Vector"
    d="M39.9998 44.9993V7.50658H34.6665C33.5465 3.19997 29.6665 0 25.0132 0C20.3599 0 16.4799 3.19997 15.3599 7.50658H9.99988V44.9993H0V49.9993H50V44.9993H39.9998ZM29.9999 12.5059H34.9999V17.5059H29.9999V12.5059ZM29.9999 22.5057H34.9999V27.5057H29.9999V22.5057ZM29.9999 32.5056H34.9999V37.5056H29.9999V32.5056ZM14.9996 12.5061H19.9996V17.5061H14.9996V12.5061ZM14.9996 22.506H19.9996V27.506H14.9996V22.506ZM14.9996 32.5059H19.9996V37.5059H14.9996V32.5059ZM22.4929 39.9991H27.4929V44.9991H22.4929V39.9991Z"
  />
</svg>