<svg width="17" height="17" viewBox="0 0 17 17" fill="none" xmlns="http://www.w3.org/2000/svg">
<g id="Content">
<g id="Icon">
<path d="M4.31543 6.18954C4.97901 6.24951 5.6289 6.39195 6.27195 6.56437C6.37457 5.90467 6.48402 5.24498 6.58664 4.58528C5.94358 4.40536 5.29369 4.27042 4.63012 4.21045C4.52066 4.87015 4.41804 5.53734 4.31543 6.19704V6.18954Z" fill="black"/>
<path d="M8.18744 7.15661C7.55123 6.94671 6.91501 6.72931 6.27196 6.55688C6.16251 7.21658 6.05989 7.88378 5.95728 8.54347C6.60033 8.7159 7.23654 8.9333 7.87959 9.1432C7.98905 8.4835 8.09166 7.81631 8.19428 7.15661H8.18744Z" fill="black"/>
<path d="M8.19428 7.15661C8.83733 7.36651 9.47336 7.57656 10.1164 7.75648C10.2259 7.09678 10.3285 6.42959 10.4311 5.76989C9.78804 5.58997 9.14499 5.38007 8.50878 5.17017C8.39932 5.82986 8.29671 6.48956 8.19409 7.14926L8.19428 7.15661Z" fill="black"/>
<path d="M9.80176 9.74294C10.4448 9.92285 11.0947 10.0578 11.7583 10.1178C11.8677 9.45807 11.9635 8.79837 12.073 8.13867C12.073 8.13867 12.073 8.13867 12.073 8.13118C11.4094 8.0712 10.7595 7.9289 10.1164 7.75648C10.007 8.42368 9.90437 9.08324 9.80176 9.74294Z" fill="black"/>
<path d="M14.8025 3.88063C10.9305 4.6078 7.62632 1.80409 3.83642 1.999C3.48069 2.03648 3.15232 2.04398 2.98814 2.07396C2.92657 2.08896 2.87868 2.14143 2.865 2.2164L1.10686 15.163C1.06582 15.4553 1.23 15.7327 1.48312 15.8152C1.79096 15.9051 2.09881 15.6877 2.14669 15.3504C2.14669 15.3504 2.42717 13.0414 2.76238 10.3427C6.42915 10.2752 9.66494 12.914 13.4275 12.2318C13.5575 12.2093 13.6669 12.0894 13.6874 11.9469C14.1047 9.30815 14.5289 6.67685 14.9462 4.03806C14.9599 3.9481 14.8846 3.86564 14.8025 3.88063ZM13.9748 6.1296C13.4343 6.18958 12.9076 6.20457 12.3876 6.15209C12.2782 6.81179 12.1824 7.47148 12.073 8.13118C12.073 8.13118 12.073 8.13118 12.073 8.13867C12.6066 8.19115 13.147 8.18366 13.7011 8.1087C13.5917 8.79838 13.4822 9.49556 13.3796 10.0953C12.8323 10.1628 12.285 10.1703 11.7514 10.1253C11.6899 10.5226 11.6283 10.9199 11.5599 11.3172C11.5599 11.3172 10.7116 11.3172 9.56916 11.1298C9.64441 10.6725 9.71282 10.2152 9.78807 9.75045C9.14502 9.57053 8.50197 9.36062 7.86576 9.15072C7.78367 9.66049 7.70157 10.1703 7.62632 10.68C7.33216 10.5826 7.03116 10.4776 6.737 10.3577C6.38126 10.2077 6.04606 10.0803 5.72453 9.96785C5.79978 9.49556 5.87503 9.02328 5.95028 8.55849C5.30723 8.37857 4.65734 8.24364 3.99376 8.18366C3.92535 8.60347 3.86378 9.02328 3.79537 9.44309C3.38491 9.36062 3.07023 9.31564 2.8992 9.30065C2.94709 8.91833 2.99498 8.536 3.04286 8.15368C3.36439 8.14618 3.68592 8.15368 4.0006 8.18366C4.11006 7.52397 4.21282 6.85674 4.31543 6.19704C3.98022 6.16705 3.63803 6.15959 3.28914 6.17458C3.37807 5.45491 3.467 4.78022 3.54226 4.19549C3.91167 4.1805 4.27438 4.18046 4.63012 4.21045C4.70537 3.74566 4.78047 3.28091 4.84888 2.80863C5.38248 2.89858 6.03237 3.03352 6.79856 3.23593C6.73015 3.68572 6.6549 4.12802 6.58649 4.57782C7.22955 4.75024 7.86576 4.96764 8.50197 5.17754C8.57038 4.72775 8.64563 4.27046 8.71404 3.82066C8.75509 3.83566 8.78929 3.84315 8.83034 3.85814C9.49391 4.08304 10.0959 4.24797 10.65 4.37541C10.5748 4.84769 10.4995 5.31248 10.4243 5.78476C11.0673 5.96468 11.7172 6.09962 12.3808 6.15959C12.4629 5.66482 12.5382 5.16255 12.6202 4.66777C13.2496 4.70526 13.7422 4.67527 14.0774 4.63779C14.0979 4.92266 14.05 5.46991 13.9748 6.1371V6.1296Z" fill="black"/>
</g>
</g>
</svg>
