<svg width="17" height="17" viewBox="0 0 17 17" fill="none" xmlns="http://www.w3.org/2000/svg">
<g id="Content">
<g id="Icon">
<path fill-rule="evenodd" clip-rule="evenodd" d="M12.2052 3.81596C12.9197 4.01693 13.5266 4.3659 13.9707 4.86443C14.192 5.26948 14.767 6.96994 10.5971 9.2842C6.72099 11.4349 3.53204 11.5876 2.93289 11.0236C2.33296 10.4589 3.64968 6.70977 6.18963 5.19392C8.61504 3.74507 10.8145 3.55345 12.2045 3.81596L12.2052 3.81596ZM10.5963 12.8245C9.01706 13.7647 7.3474 14.229 5.8881 14.229C5.36942 14.2311 4.85285 14.163 4.35245 14.0265C4.16157 13.9377 4.04314 13.8185 4.10859 13.6557C4.35557 13.1268 7.00225 12.8861 10.915 10.2711C13.3692 8.63066 14.3954 7.63049 14.728 7.27061C14.5769 9.18528 13.0373 11.371 10.5963 12.8245ZM14.6447 5.00931C13.2477 2.66466 9.2173 2.4894 5.64268 4.61672C2.06728 6.7456 0.163885 10.6606 1.56085 13.006C2.95704 15.3507 6.95395 15.4706 10.5286 13.3425C14.104 11.2137 16.0416 7.35474 14.6447 5.00931Z" fill="black"/>
<path d="M10.9541 3.27673C12.4536 3.34207 13.6933 3.88769 14.3916 4.87732L14.5244 5.08142C15.1888 6.19731 15.0704 7.69392 14.3252 9.1947C13.628 10.5988 12.3908 11.9854 10.7832 13.0199L10.457 13.222C8.68911 14.2746 6.82199 14.7673 5.23242 14.7113C3.74132 14.6587 2.5101 14.1256 1.81348 13.1381L1.68164 12.934C1.01675 11.8175 1.12634 10.3064 1.86328 8.79138C2.55268 7.37419 3.7826 5.97553 5.38867 4.93982L5.71484 4.73767C7.48199 3.68604 9.35612 3.20712 10.9541 3.27673ZM14.8984 6.8783L14.625 7.17517C14.4365 7.37905 14.0112 7.80052 13.2051 8.44177C12.8012 8.76292 12.3023 9.13989 11.6885 9.57068L10.8359 10.1547C8.89123 11.4546 7.26176 12.164 6.08691 12.6146C5.50684 12.8371 5.01569 13.004 4.67383 13.141C4.50026 13.2105 4.35283 13.2768 4.23926 13.3451C4.15647 13.3949 4.07989 13.452 4.02637 13.5219L3.98145 13.5961L3.97852 13.6029C3.92686 13.7314 3.94846 13.8538 4.02148 13.9525C4.08739 14.0416 4.18978 14.1057 4.29297 14.1537L4.30371 14.1586L4.31543 14.1615C4.44112 14.1963 4.56989 14.2259 4.70117 14.2523C4.72058 14.2562 4.74032 14.2584 4.75977 14.2621C4.86598 14.2823 4.97341 14.3023 5.08301 14.3168C5.34655 14.3521 5.61241 14.3692 5.87891 14.3685L5.8877 14.3695V14.3685C6.07362 14.3685 6.26322 14.3618 6.45508 14.347C7.70191 14.2509 9.0599 13.842 10.3672 13.1176L10.668 12.9447C12.3681 11.9323 13.6462 10.5622 14.3271 9.1615C14.6339 8.53095 14.8205 7.89445 14.8691 7.28162L14.9004 6.8783H14.8984ZM14.4941 7.85388C14.3473 8.50806 14.0487 9.1848 13.6113 9.84314C13.4713 10.054 13.3179 10.2634 13.1504 10.4691C12.4793 11.2935 11.5935 12.0665 10.5293 12.7006L10.5244 12.7035C8.9649 13.6331 7.31779 14.0883 5.8877 14.0883C5.5358 14.0882 5.19908 14.0552 4.87891 13.9984C4.71946 13.9699 4.56097 13.9362 4.4043 13.8939C4.32158 13.8545 4.27093 13.8178 4.24707 13.7855C4.22989 13.7623 4.22555 13.7433 4.23828 13.7103C4.25312 13.6829 4.29247 13.6412 4.38379 13.5863C4.47749 13.53 4.608 13.47 4.77832 13.4017C5.12442 13.2631 5.5861 13.107 6.1875 12.8763C7.11718 12.5198 8.32823 12.0006 9.75391 11.1625C9.92263 11.0633 10.0959 10.9623 10.2705 10.8539L10.9932 10.3881C11.9693 9.73559 12.7197 9.18167 13.293 8.72986C13.8737 8.27237 14.2714 7.91823 14.5332 7.66638C14.522 7.72876 14.5082 7.79105 14.4941 7.85388ZM11.0186 3.57654C10.472 3.58109 9.86447 3.64897 9.21191 3.80017C9.02938 3.84249 8.84346 3.89159 8.6543 3.94763C8.07056 4.12053 7.45781 4.36206 6.8252 4.68494C6.71321 4.74207 6.60043 4.80128 6.4873 4.86365L6.11719 5.07361C6.06455 5.10503 6.01349 5.13902 5.96191 5.17224C5.6587 5.36744 5.37383 5.59259 5.1084 5.83923C4.81078 6.11585 4.53731 6.41842 4.29004 6.73474C3.86789 7.27474 3.52033 7.85279 3.25684 8.40466C2.967 9.01175 2.77482 9.59363 2.69336 10.0638C2.65271 10.2985 2.63901 10.5112 2.65723 10.6879C2.67062 10.8174 2.70257 10.94 2.76465 11.0375L2.83691 11.1254V11.1263C2.8509 11.1395 2.86716 11.1503 2.88281 11.1625C2.97566 11.2347 3.09609 11.2916 3.23535 11.3334C3.39995 11.3827 3.59936 11.4158 3.82812 11.432C3.94256 11.4401 4.06517 11.4433 4.19531 11.4427C4.58617 11.4411 5.04559 11.3997 5.56055 11.3099C6.84821 11.0855 8.49461 10.5606 10.3027 9.60388L10.666 9.40662C11.8589 8.74419 12.6733 8.12733 13.2217 7.57068C13.3031 7.48804 13.3772 7.40551 13.4473 7.32556C13.5038 7.26107 13.5569 7.19782 13.6064 7.13513C13.8085 6.87942 13.9563 6.64003 14.0586 6.41638C14.2975 5.89359 14.2955 5.47004 14.2305 5.17224C14.1944 5.00663 14.1393 4.87957 14.0938 4.79626L14.0859 4.78259L14.0752 4.7699L13.8936 4.5824C13.6226 4.32458 13.3053 4.11391 12.9531 3.94666C12.812 3.87961 12.6657 3.81867 12.5137 3.76599L12.2432 3.68103L12.2422 3.68005H12.2432L12.2363 3.6781L12.2246 3.67517H12.2129C11.8605 3.60995 11.4595 3.57277 11.0186 3.57654ZM11.0205 3.85681C11.4463 3.85324 11.8314 3.88898 12.167 3.95154C12.4374 4.02769 12.6909 4.12551 12.9248 4.24451C13.2845 4.42758 13.5978 4.66036 13.8535 4.94373C13.8995 5.03092 13.9639 5.18556 13.9824 5.40076C14.0023 5.63307 13.969 5.93548 13.8027 6.29919C13.5508 6.85033 12.9893 7.55048 11.8262 8.35974C11.5531 8.54965 11.2474 8.7463 10.9043 8.94763L10.5293 9.1615C8.60378 10.2299 6.85171 10.8 5.51172 11.0336C5.00922 11.1212 4.56646 11.1608 4.19531 11.1625C4.07164 11.163 3.95596 11.1593 3.84863 11.1517C3.63376 11.1365 3.45504 11.1067 3.31543 11.0648C3.20938 11.033 3.13111 10.9958 3.07617 10.9584L3.0293 10.9213L3 10.8851C2.972 10.8404 2.94683 10.768 2.93555 10.6586C2.9209 10.5163 2.93167 10.3314 2.96973 10.1117C3.04577 9.67277 3.22899 9.11592 3.51074 8.52576C3.58871 8.36247 3.67424 8.19728 3.7666 8.03162C3.84904 7.88375 3.93673 7.73541 4.03027 7.58826C4.10057 7.47768 4.17459 7.3681 4.25098 7.25916C4.30667 7.17972 4.36399 7.10091 4.42285 7.02283C4.57164 6.82545 4.73005 6.63278 4.89844 6.44861C5.0568 6.27539 5.22354 6.10942 5.39844 5.95349C5.63589 5.74185 5.88904 5.55007 6.15527 5.3822L6.26172 5.31482C6.3305 5.27373 6.40037 5.23571 6.46875 5.19666C8.18891 4.21479 9.77738 3.86751 11.0205 3.85681Z" stroke="black" stroke-width="0.280702"/>
</g>
</g>
</svg>
