<svg width="24" height="24" viewBox="0 0 24 24" role="img" id="search" xmlns="http://www.w3.org/2000/svg">
    <path fill-rule="evenodd" clip-rule="evenodd" d="M6.77011 14.8057L3.08303 18.5085C2.66464 18.8996 2.66464 19.5776 3.08303 19.9948C3.29222 20.2034 3.55372 20.3077 3.81521 20.3077C4.07671 20.3077 4.33821 20.2034 4.5474 19.9948L8.23448 16.3181C9.59425 17.3612 11.294 17.987 13.1506 17.987C17.6221 17.987 21.2308 14.3625 21.2308 9.9296C21.2308 5.47067 17.6483 1.84616 13.1767 1.84616C8.70517 1.84616 5.09654 5.47067 5.09654 9.90353C5.09654 11.7549 5.72413 13.4498 6.77011 14.8057ZM13.1506 3.95832C16.4454 3.95832 19.1388 6.64411 19.1388 9.92964C19.1388 13.2152 16.4716 15.901 13.1767 15.901C9.88189 15.901 7.18849 13.2152 7.18849 9.92964C7.18849 6.64411 9.85574 3.95832 13.1506 3.95832Z"/>
</svg>
