<svg role="img" id="selfcare" width="24" height="24" viewBox="0 0 24 24" fill="none" xmlns="http://www.w3.org/2000/svg">
    <g clip-path="url(#clip0_25_5371)">
        <rect width="24" height="24" rx="2" fill="white"/>
        <rect width="24" height="24" fill="#24C9E2"/>
        <path fill-rule="evenodd" clip-rule="evenodd" d="M18.409 17.711H5.59079C5.36504 17.711 5.18242 17.528 5.18242 17.3023V9.02491C5.18242 8.86516 5.27542 8.72003 5.42017 8.65366L11.8293 5.70916C11.9377 5.65928 12.0622 5.65928 12.1705 5.70916L18.5797 8.65366C18.7248 8.72003 18.8178 8.86516 18.8178 9.02491V17.3023C18.8178 17.528 18.6348 17.711 18.409 17.711Z" fill="white"/>
        <path fill-rule="evenodd" clip-rule="evenodd" d="M12 9.49072C12.8711 9.49072 13.5776 10.1968 13.5776 11.0683C13.5776 11.9395 12.8711 12.6456 12 12.6456C11.1289 12.6456 10.4224 11.9395 10.4224 11.0683C10.4224 10.1968 11.1289 9.49072 12 9.49072Z" fill="#287C97"/>
        <path fill-rule="evenodd" clip-rule="evenodd" d="M8.99486 15.8394C8.68586 15.8394 8.51636 15.4877 8.69973 15.2387C9.44748 14.2277 10.646 13.571 12.0001 13.571C13.3542 13.571 14.5527 14.2277 15.3001 15.2387C15.4839 15.4877 15.314 15.8394 15.005 15.8394H8.99486Z" fill="#287C97"/>
    </g>
    <defs>
        <clipPath id="clip0_25_5371">
            <rect width="24" height="24" rx="2" fill="white"/>
        </clipPath>
    </defs>
</svg>