<svg role="img" id="settings" width="24" height="24" viewBox="0 0 24 24" fill="none" xmlns="http://www.w3.org/2000/svg">
    <g clip-path="url(#clip0_25_5461)">
        <path d="M24 0H0V24H24V0Z" fill="#BCCDD7"/>
        <path fill-rule="evenodd" clip-rule="evenodd" d="M14.0892 15.4794C12.1424 16.5715 9.65398 15.9235 8.53072 14.0308C7.407 12.1385 8.07535 9.71951 10.0207 8.62697C11.9665 7.53442 14.4554 8.18203 15.5792 10.0747C16.7024 11.9675 16.0354 14.3873 14.0892 15.4794ZM16.7572 9.42186C16.5112 9.00947 16.2136 8.64631 15.8812 8.32536L16.6436 7.04509L14.1054 5.625L13.3213 6.94089C12.4685 6.74128 11.5659 6.74304 10.6918 6.96331L9.89501 5.62544L7.35725 7.04509L8.15901 8.39219C7.53542 9.01562 7.09091 9.76919 6.84672 10.5795H5.2509L5.25 13.421L6.81688 13.4205C6.93761 13.8531 7.11035 14.2779 7.35183 14.685C7.57069 15.0503 7.83207 15.3783 8.11967 15.6729L7.35725 16.954L9.89501 18.3746L10.6339 17.1321C11.5189 17.3651 12.4644 17.3765 13.3774 17.1536L14.1064 18.375L16.6436 16.9545L15.9215 15.7432C16.5876 15.0859 17.0583 14.2844 17.2975 13.4205H18.7477L18.75 10.5808L17.2627 10.5804C17.1442 10.1842 16.9783 9.79469 16.7572 9.42186Z" fill="white"/>
    </g>
    <defs>
        <clipPath id="clip0_25_5461">
            <rect width="24" height="24" rx="2" fill="white"/>
        </clipPath>
    </defs>
</svg>