<svg role="img" id="tips" width="24" height="24" viewBox="0 0 24 24" fill="none" xmlns="http://www.w3.org/2000/svg">
    <g clip-path="url(#clip0_25_5328)">
        <path d="M24 0H0V24H24V0Z" fill="#BCCDD7"/>
        <path fill-rule="evenodd" clip-rule="evenodd" d="M12 8.25C14.0711 8.25 15.75 9.92893 15.75 12C15.75 13.2156 15.1716 14.2962 14.2749 14.9814L14.2479 15.0132C13.8143 15.4445 13.5712 16.0709 13.5186 16.8926C13.5156 16.9389 13.5044 16.9828 13.4863 17.0228C13.391 17.5741 12.7618 18 12 18C11.2192 18 10.5777 17.5526 10.5066 16.9809C10.4971 16.953 10.4914 16.9227 10.4895 16.8914C10.4396 16.0727 10.2104 15.4466 9.80173 15.0132L9.85887 15.079C8.88638 14.4015 8.25 13.2751 8.25 12C8.25 9.92893 9.92893 8.25 12 8.25Z" fill="white"/>
        <path d="M5.625 12.375C5.83211 12.375 6 12.2071 6 12C6 11.7929 5.83211 11.625 5.625 11.625H4.875C4.66789 11.625 4.5 11.7929 4.5 12C4.5 12.2071 4.66789 12.375 4.875 12.375H5.625Z" fill="white"/>
        <path d="M19.125 12.375C19.3321 12.375 19.5 12.2071 19.5 12C19.5 11.7929 19.3321 11.625 19.125 11.625H18.375C18.1679 11.625 18 11.7929 18 12C18 12.2071 18.1679 12.375 18.375 12.375H19.125Z" fill="white"/>
        <path d="M7.22703 7.75735C7.37347 7.9038 7.61091 7.9038 7.75736 7.75735C7.9038 7.61091 7.9038 7.37347 7.75736 7.22702L7.22703 6.69669C7.08058 6.55025 6.84314 6.55025 6.6967 6.69669C6.55025 6.84314 6.55025 7.08058 6.6967 7.22702L7.22703 7.75735Z" fill="white"/>
        <path d="M16.773 17.3033C16.9194 17.4497 17.1568 17.4497 17.3033 17.3033C17.4497 17.1568 17.4497 16.9194 17.3033 16.7729L16.773 16.2426C16.6265 16.0961 16.3891 16.0961 16.2426 16.2426C16.0962 16.389 16.0962 16.6265 16.2426 16.7729L16.773 17.3033Z" fill="white"/>
        <path d="M16.2426 7.22709C16.0962 7.37353 16.0962 7.61097 16.2426 7.75742C16.3891 7.90386 16.6265 7.90386 16.773 7.75742L17.3033 7.22709C17.4498 7.08064 17.4498 6.8432 17.3033 6.69676C17.1569 6.55031 16.9194 6.55031 16.773 6.69676L16.2426 7.22709Z" fill="white"/>
        <path d="M6.69672 16.773C6.55027 16.9194 6.55027 17.1569 6.69672 17.3033C6.84317 17.4498 7.0806 17.4498 7.22705 17.3033L7.75738 16.773C7.90383 16.6265 7.90383 16.3891 7.75738 16.2427C7.61093 16.0962 7.3735 16.0962 7.22705 16.2427L6.69672 16.773Z" fill="white"/>
        <path d="M11.625 5.625C11.625 5.83211 11.7929 6 12 6C12.2071 6 12.375 5.83211 12.375 5.625V4.875C12.375 4.66789 12.2071 4.5 12 4.5C11.7929 4.5 11.625 4.66789 11.625 4.875V5.625Z" fill="white"/>
    </g>
    <defs>
        <clipPath id="clip0_25_5328">
            <rect width="24" height="24" rx="2" fill="white"/>
        </clipPath>
    </defs>
</svg>